<mxfile host="app.diagrams.net" modified="2022-10-26T22:04:45.904Z" agent="5.0 (Windows NT 10.0; Win64; x64) AppleWebKit/537.36 (KHTML, like Gecko) Chrome/106.0.0.0 Safari/537.36" etag="e9lqJUtWRyah1us5Dazd" version="20.4.2" type="github">
  <diagram id="kyxfSeWZe95SY9_IIwm3" name="Страница 1">
    <mxGraphModel dx="1865" dy="579" grid="1" gridSize="10" guides="1" tooltips="1" connect="1" arrows="1" fold="1" page="1" pageScale="1" pageWidth="827" pageHeight="1169" math="0" shadow="0">
      <root>
        <mxCell id="0" />
        <mxCell id="1" parent="0" />
        <mxCell id="lpDl_g0Mxc1QFeLBqSDx-1" value="" style="edgeStyle=orthogonalEdgeStyle;rounded=0;orthogonalLoop=1;jettySize=auto;html=1;" edge="1" parent="1" source="lpDl_g0Mxc1QFeLBqSDx-2" target="lpDl_g0Mxc1QFeLBqSDx-4">
          <mxGeometry relative="1" as="geometry" />
        </mxCell>
        <mxCell id="lpDl_g0Mxc1QFeLBqSDx-2" value="&lt;font style=&quot;vertical-align: inherit;&quot;&gt;&lt;font style=&quot;vertical-align: inherit;&quot;&gt;Начало&lt;/font&gt;&lt;/font&gt;" style="ellipse;whiteSpace=wrap;html=1;" vertex="1" parent="1">
          <mxGeometry x="360" y="100" width="100" height="60" as="geometry" />
        </mxCell>
        <mxCell id="lpDl_g0Mxc1QFeLBqSDx-3" value="" style="edgeStyle=orthogonalEdgeStyle;rounded=0;orthogonalLoop=1;jettySize=auto;html=1;" edge="1" parent="1" source="lpDl_g0Mxc1QFeLBqSDx-4" target="lpDl_g0Mxc1QFeLBqSDx-9">
          <mxGeometry relative="1" as="geometry" />
        </mxCell>
        <mxCell id="lpDl_g0Mxc1QFeLBqSDx-4" value="&lt;font style=&quot;vertical-align: inherit;&quot;&gt;&lt;font style=&quot;vertical-align: inherit;&quot;&gt;Логин&lt;br&gt;Пароль&lt;br&gt;&lt;/font&gt;&lt;/font&gt;" style="shape=parallelogram;perimeter=parallelogramPerimeter;whiteSpace=wrap;html=1;fixedSize=1;" vertex="1" parent="1">
          <mxGeometry x="350" y="200" width="120" height="60" as="geometry" />
        </mxCell>
        <mxCell id="lpDl_g0Mxc1QFeLBqSDx-5" value="" style="edgeStyle=orthogonalEdgeStyle;rounded=0;orthogonalLoop=1;jettySize=auto;html=1;" edge="1" parent="1" source="lpDl_g0Mxc1QFeLBqSDx-9">
          <mxGeometry relative="1" as="geometry">
            <mxPoint x="410" y="180" as="targetPoint" />
            <Array as="points">
              <mxPoint x="590" y="340" />
              <mxPoint x="590" y="180" />
            </Array>
          </mxGeometry>
        </mxCell>
        <mxCell id="lpDl_g0Mxc1QFeLBqSDx-6" value="&lt;font style=&quot;vertical-align: inherit;&quot;&gt;&lt;font style=&quot;vertical-align: inherit;&quot;&gt;Нет&lt;/font&gt;&lt;/font&gt;" style="edgeLabel;html=1;align=center;verticalAlign=middle;resizable=0;points=[];" vertex="1" connectable="0" parent="lpDl_g0Mxc1QFeLBqSDx-5">
          <mxGeometry x="-0.6516" y="-1" relative="1" as="geometry">
            <mxPoint x="-38" y="-1" as="offset" />
          </mxGeometry>
        </mxCell>
        <mxCell id="lpDl_g0Mxc1QFeLBqSDx-7" value="" style="edgeStyle=orthogonalEdgeStyle;rounded=0;orthogonalLoop=1;jettySize=auto;html=1;" edge="1" parent="1" source="lpDl_g0Mxc1QFeLBqSDx-9" target="lpDl_g0Mxc1QFeLBqSDx-14">
          <mxGeometry relative="1" as="geometry" />
        </mxCell>
        <mxCell id="lpDl_g0Mxc1QFeLBqSDx-8" value="&lt;font style=&quot;vertical-align: inherit;&quot;&gt;&lt;font style=&quot;vertical-align: inherit;&quot;&gt;Да&lt;/font&gt;&lt;/font&gt;" style="edgeLabel;html=1;align=center;verticalAlign=middle;resizable=0;points=[];" vertex="1" connectable="0" parent="lpDl_g0Mxc1QFeLBqSDx-7">
          <mxGeometry x="-0.484" y="1" relative="1" as="geometry">
            <mxPoint as="offset" />
          </mxGeometry>
        </mxCell>
        <mxCell id="lpDl_g0Mxc1QFeLBqSDx-9" value="&lt;font style=&quot;vertical-align: inherit;&quot;&gt;&lt;font style=&quot;vertical-align: inherit;&quot;&gt;Логин существует?&lt;/font&gt;&lt;/font&gt;" style="rhombus;whiteSpace=wrap;html=1;" vertex="1" parent="1">
          <mxGeometry x="340" y="300" width="140" height="80" as="geometry" />
        </mxCell>
        <mxCell id="lpDl_g0Mxc1QFeLBqSDx-10" style="edgeStyle=orthogonalEdgeStyle;rounded=0;orthogonalLoop=1;jettySize=auto;html=1;exitX=1;exitY=0.5;exitDx=0;exitDy=0;endArrow=none;endFill=0;" edge="1" parent="1" source="lpDl_g0Mxc1QFeLBqSDx-14">
          <mxGeometry relative="1" as="geometry">
            <mxPoint x="420" y="180" as="targetPoint" />
            <Array as="points">
              <mxPoint x="590" y="440" />
            </Array>
          </mxGeometry>
        </mxCell>
        <mxCell id="lpDl_g0Mxc1QFeLBqSDx-11" value="Нет" style="edgeLabel;html=1;align=center;verticalAlign=middle;resizable=0;points=[];" vertex="1" connectable="0" parent="lpDl_g0Mxc1QFeLBqSDx-10">
          <mxGeometry x="-0.8283" y="-3" relative="1" as="geometry">
            <mxPoint y="-3" as="offset" />
          </mxGeometry>
        </mxCell>
        <mxCell id="lpDl_g0Mxc1QFeLBqSDx-12" value="" style="edgeStyle=orthogonalEdgeStyle;rounded=0;orthogonalLoop=1;jettySize=auto;html=1;endArrow=classic;endFill=1;" edge="1" parent="1" source="lpDl_g0Mxc1QFeLBqSDx-14" target="lpDl_g0Mxc1QFeLBqSDx-16">
          <mxGeometry relative="1" as="geometry" />
        </mxCell>
        <mxCell id="lpDl_g0Mxc1QFeLBqSDx-13" value="Да" style="edgeLabel;html=1;align=center;verticalAlign=middle;resizable=0;points=[];" vertex="1" connectable="0" parent="lpDl_g0Mxc1QFeLBqSDx-12">
          <mxGeometry x="-0.1829" y="1" relative="1" as="geometry">
            <mxPoint as="offset" />
          </mxGeometry>
        </mxCell>
        <mxCell id="lpDl_g0Mxc1QFeLBqSDx-14" value="&lt;font style=&quot;vertical-align: inherit;&quot;&gt;&lt;font style=&quot;vertical-align: inherit;&quot;&gt;&lt;font style=&quot;vertical-align: inherit;&quot;&gt;&lt;font style=&quot;vertical-align: inherit;&quot;&gt;Пароль верный?&lt;/font&gt;&lt;/font&gt;&lt;/font&gt;&lt;/font&gt;" style="rhombus;whiteSpace=wrap;html=1;" vertex="1" parent="1">
          <mxGeometry x="130" y="400" width="140" height="80" as="geometry" />
        </mxCell>
        <mxCell id="lpDl_g0Mxc1QFeLBqSDx-15" value="" style="edgeStyle=orthogonalEdgeStyle;rounded=0;orthogonalLoop=1;jettySize=auto;html=1;endArrow=classic;endFill=1;" edge="1" parent="1" source="lpDl_g0Mxc1QFeLBqSDx-16" target="lpDl_g0Mxc1QFeLBqSDx-17">
          <mxGeometry relative="1" as="geometry" />
        </mxCell>
        <mxCell id="lpDl_g0Mxc1QFeLBqSDx-16" value="Переход на &lt;br&gt;content.php&lt;br&gt;Запись cookies" style="shape=parallelogram;perimeter=parallelogramPerimeter;whiteSpace=wrap;html=1;fixedSize=1;" vertex="1" parent="1">
          <mxGeometry x="-10" y="500" width="120" height="60" as="geometry" />
        </mxCell>
        <mxCell id="lpDl_g0Mxc1QFeLBqSDx-17" value="Конец" style="ellipse;whiteSpace=wrap;html=1;" vertex="1" parent="1">
          <mxGeometry x="-10" y="590" width="120" height="60" as="geometry" />
        </mxCell>
      </root>
    </mxGraphModel>
  </diagram>
</mxfile>
